<?xml version="1.0" standalone="no"?>
<!DOCTYPE svg PUBLIC "-//W3C//DTD SVG 20010904//EN"
 "http://www.w3.org/TR/2001/REC-SVG-20010904/DTD/svg10.dtd">
<svg version="1.0" xmlns="http://www.w3.org/2000/svg"
 width="393.000000pt" height="393.000000pt" viewBox="0 0 393.000000 393.000000"
 preserveAspectRatio="xMidYMid meet">
<metadata>
Created by potrace 1.14, written by Peter Selinger 2001-2017
</metadata>
<g transform="translate(0.000000,393.000000) scale(0.100000,-0.100000)"
fill="#000000" stroke="none">
<path d="M1465 3568 c-3 -13 -13 -59 -23 -103 l-18 -79 -94 -23 c-52 -12 -100
-22 -106 -23 -6 0 -39 36 -73 80 -34 44 -63 80 -65 80 -3 0 -300 -140 -303
-144 -1 -1 10 -48 24 -104 14 -57 24 -104 22 -105 -2 -1 -38 -31 -81 -65 -42
-34 -82 -62 -90 -61 -7 0 -51 19 -98 43 l-84 43 -103 -129 c-57 -71 -103 -132
-103 -136 0 -4 29 -41 65 -84 l64 -76 -44 -96 -45 -95 -107 -3 -106 -3 -33
-145 c-18 -80 -33 -155 -33 -166 -1 -17 17 -29 94 -65 l95 -43 0 -106 0 -107
-92 -43 c-51 -23 -95 -44 -96 -46 -5 -3 67 -315 75 -327 3 -6 49 -7 108 -3
l102 7 46 -96 c26 -53 44 -102 40 -108 -4 -7 -33 -45 -65 -84 l-59 -73 106
-130 c58 -71 108 -130 110 -130 3 0 47 21 99 47 l93 46 55 -44 c30 -24 67 -53
83 -64 l27 -20 -21 -88 c-24 -103 -26 -123 -8 -130 6 -3 74 -35 149 -71 l138
-65 62 82 c34 45 63 84 65 86 1 2 27 -1 55 -7 29 -7 76 -17 104 -22 l51 -11
24 -105 23 -104 88 0 88 0 0 295 0 295 -59 0 c-74 0 -214 24 -294 51 -283 94
-532 330 -638 604 -94 242 -92 532 4 768 71 174 225 365 376 467 147 99 337
164 517 176 l94 7 0 288 0 289 -100 0 c-95 0 -100 -1 -105 -22z"/>
<path d="M1740 3283 l0 -290 98 -6 c355 -22 680 -240 847 -567 16 -30 43 -100
60 -155 l32 -100 501 3 500 4 31 -23 c26 -19 34 -21 56 -11 38 18 51 60 27 91
-25 34 -58 38 -93 12 -28 -21 -37 -21 -502 -21 l-474 0 -33 92 c-40 116 -74
183 -141 278 -176 250 -448 411 -760 451 l-89 12 0 99 0 100 64 -7 c35 -3 86
-13 113 -21 26 -8 66 -17 88 -20 22 -3 80 -18 129 -35 310 -104 568 -336 700
-630 l39 -86 225 -6 c181 -5 228 -10 242 -22 23 -21 73 -19 93 3 52 58 -26
135 -89 87 -15 -11 -60 -14 -224 -15 l-205 0 -35 78 c-133 297 -428 555 -745
652 -38 12 -97 30 -130 40 -51 16 -224 50 -255 50 -6 0 -10 40 -10 101 l0 100
43 -5 c23 -3 73 -8 111 -12 147 -13 424 -95 561 -165 170 -87 294 -196 393
-348 57 -86 61 -95 56 -135 -7 -50 12 -76 55 -76 58 0 83 73 36 107 -14 10
-47 53 -73 97 -142 236 -347 389 -655 491 -181 60 -308 85 -459 92 l-128 6 0
-290z"/>
<path d="M1740 1970 l0 -933 92 8 c366 28 672 245 808 573 101 241 91 531 -26
765 -69 137 -187 274 -306 356 -133 90 -306 148 -470 158 l-98 6 0 -933z m345
799 c45 -17 116 -52 156 -78 75 -49 189 -151 189 -169 0 -8 -146 -82 -162 -82
-3 0 -26 33 -51 73 -58 92 -142 185 -226 249 l-66 51 39 -7 c21 -4 76 -21 121
-37z m-194 -30 c80 -51 212 -186 261 -266 l37 -61 -57 -11 c-75 -16 -240 -26
-286 -17 l-36 7 0 194 c0 107 4 195 8 195 5 0 38 -19 73 -41z m670 -417 c34
-75 57 -158 68 -248 l7 -65 -130 3 -131 3 -3 35 c-4 66 -23 155 -49 235 -14
43 -22 80 -17 82 5 2 47 23 94 47 l85 43 23 -36 c13 -20 37 -64 53 -99z m-313
-51 c18 -50 52 -216 52 -253 0 -5 -110 -8 -245 -8 l-245 0 0 148 0 147 138 2
c83 1 159 7 192 16 30 8 62 14 70 13 9 -1 24 -28 38 -65z m47 -398 c-8 -87
-28 -174 -55 -247 -17 -45 -25 -56 -38 -51 -70 27 -200 57 -267 61 -138 9
-125 -8 -125 159 l0 145 246 0 246 0 -7 -67z m338 20 c-13 -136 -90 -339 -160
-421 l-28 -33 -69 45 c-38 25 -73 47 -79 49 -5 1 4 41 21 87 27 79 43 151 57
273 l6 47 128 0 129 0 -5 -47z m-564 -359 c52 -13 99 -28 104 -33 12 -12 -55
-111 -128 -189 -49 -53 -179 -152 -219 -168 -14 -6 -16 16 -16 211 l0 217 83
-7 c45 -4 124 -18 176 -31z m273 -120 c27 -16 48 -32 48 -36 0 -11 -91 -87
-155 -129 -56 -37 -174 -88 -239 -103 -24 -6 -18 1 33 44 65 54 163 171 202
239 21 38 24 40 43 28 12 -7 42 -26 68 -43z"/>
<path d="M1525 2881 l-30 -6 -3 -116 -3 -116 36 -36 c44 -44 48 -91 9 -136
-35 -42 -98 -44 -138 -5 -37 37 -37 101 0 138 15 14 31 26 35 26 5 0 9 52 9
116 l0 117 -30 -7 c-58 -11 -183 -69 -258 -119 -140 -94 -258 -231 -328 -381
-36 -80 -74 -205 -74 -248 l0 -28 190 0 c276 0 280 -3 280 -228 l0 -139 27
-14 c14 -8 32 -28 39 -44 41 -100 -81 -182 -157 -106 -43 43 -40 92 7 139 l35
35 -3 132 c-2 93 -7 137 -17 148 -12 15 -40 17 -214 17 l-200 0 5 -109 c3 -60
9 -114 12 -120 4 -6 32 -11 62 -11 50 0 58 3 88 35 43 46 91 48 137 7 34 -30
42 -79 20 -121 -12 -22 -60 -51 -86 -51 -28 0 -70 27 -85 55 -13 23 -19 26
-64 23 -47 -3 -51 -5 -48 -26 5 -34 55 -152 86 -200 l26 -42 201 0 c296 0 299
-2 299 -234 l0 -144 69 -16 c39 -9 75 -16 80 -16 8 0 11 88 11 270 0 257 -1
271 -20 290 -13 13 -33 20 -60 20 -23 0 -54 7 -70 15 -52 27 -60 58 -60 223 0
146 0 149 -24 161 -53 29 -62 107 -17 152 64 63 161 23 161 -67 0 -34 -6 -48
-30 -71 l-30 -28 0 -151 c0 -109 3 -154 13 -161 6 -6 36 -13 66 -16 29 -4 65
-14 78 -22 48 -32 53 -63 53 -355 l0 -271 23 3 22 3 3 628 2 627 -220 0 c-147
0 -220 -3 -220 -10 0 -21 -53 -60 -82 -60 -134 0 -142 190 -8 194 35 1 47 -4
71 -32 l29 -32 215 0 215 0 0 265 0 265 -52 -1 c-29 -1 -66 -4 -83 -8z"/>
<path d="M3516 1995 c-12 -13 -67 -15 -369 -15 l-354 0 -6 -92 c-35 -503 -446
-906 -962 -944 l-98 -7 6 -186 c4 -102 7 -233 7 -290 l0 -104 133 6 c156 7
280 32 464 92 308 102 513 255 655 491 26 44 59 87 73 97 48 34 22 107 -38
107 -41 0 -60 -27 -53 -76 5 -40 1 -49 -56 -135 -162 -248 -394 -390 -788
-484 -81 -19 -272 -45 -332 -45 -5 0 -8 44 -8 98 l0 98 113 17 c61 10 139 26
172 37 33 10 92 28 130 40 249 77 501 263 648 480 54 81 186 352 192 395 10
76 9 75 109 75 64 -1 97 -5 110 -15 27 -20 70 -19 89 3 22 24 21 65 -1 85 -23
21 -75 22 -92 2 -9 -10 -33 -15 -79 -16 -36 0 -88 -4 -115 -7 -49 -7 -49 -7
-68 -62 -11 -30 -23 -72 -29 -92 -16 -65 -115 -264 -171 -344 -139 -201 -356
-364 -594 -443 -49 -17 -107 -32 -129 -35 -22 -3 -62 -12 -90 -20 -27 -9 -83
-19 -122 -22 l-73 -7 0 107 0 106 49 0 c110 0 287 48 416 113 139 69 288 196
385 327 101 137 178 330 200 502 5 46 10 86 10 91 0 14 649 4 658 -10 14 -22
57 -32 83 -19 60 30 41 116 -26 116 -18 0 -40 -7 -49 -15z"/>
<path d="M940 1392 c0 -13 150 -155 200 -189 59 -40 165 -93 186 -93 14 0 15
16 12 131 -3 116 -5 132 -22 145 -15 11 -60 14 -198 14 -98 0 -178 -4 -178 -8z"/>
</g>
</svg>
